{
  "version": "1.1.6",
  "modules": [
    {
      "id": 1,
      "plugin": "Core",
      "version": "1.1.6",
      "model": "AudioInterface",
      "params": [],
      "leftModuleId": 55,
      "data": {
        "audio": {
          "driver": 6,
          "deviceName": "Speakers - Motherboard Output (Realtek High Definition Audio)",
          "offset": 0,
          "maxChannels": 8,
          "sampleRate": 44100,
          "blockSize": 256
        }
      },
      "pos": [
        89,
        0
      ]
    },
    {
      "id": 2,
      "plugin": "Fundamental",
      "version": "1.4.0",
      "model": "VCMixer",
      "params": [
        {
          "id": 0,
          "value": 1.00800002
        },
        {
          "id": 1,
          "value": 1.04934573
        },
        {
          "id": 2,
          "value": 0.855750263
        },
        {
          "id": 3,
          "value": 0.486639082
        },
        {
          "id": 4,
          "value": 0.0
        }
      ],
      "rightModuleId": 55,
      "pos": [
        69,
        0
      ]
    },
    {
      "id": 3,
      "plugin": "Fundamental",
      "version": "1.4.0",
      "model": "VCO",
      "params": [
        {
          "id": 0,
          "value": 1.0
        },
        {
          "id": 1,
          "value": 1.0
        },
        {
          "id": 2,
          "value": -28.6739807
        },
        {
          "id": 3,
          "value": 0.0
        },
        {
          "id": 4,
          "value": 0.526500344
        },
        {
          "id": 5,
          "value": 0.5
        },
        {
          "id": 6,
          "value": 0.0
        }
      ],
      "leftModuleId": 9,
      "rightModuleId": 4,
      "pos": [
        42,
        0
      ]
    },
    {
      "id": 4,
      "plugin": "Fundamental",
      "version": "1.4.0",
      "model": "VCF",
      "params": [
        {
          "id": 0,
          "value": 0.463499874
        },
        {
          "id": 1,
          "value": 0.5
        },
        {
          "id": 2,
          "value": 0.370499969
        },
        {
          "id": 3,
          "value": 1.0
        },
        {
          "id": 4,
          "value": 0.451000214
        }
      ],
      "leftModuleId": 3,
      "rightModuleId": 6,
      "pos": [
        52,
        0
      ]
    },
    {
      "id": 6,
      "plugin": "Fundamental",
      "version": "1.4.0",
      "model": "ADSR",
      "params": [
        {
          "id": 0,
          "value": 0.0
        },
        {
          "id": 1,
          "value": 0.574500024
        },
        {
          "id": 2,
          "value": 0.0
        },
        {
          "id": 3,
          "value": 0.517500043
        }
      ],
      "leftModuleId": 4,
      "pos": [
        60,
        0
      ]
    },
    {
      "id": 9,
      "plugin": "Fundamental",
      "version": "1.4.0",
      "model": "SEQ3",
      "params": [
        {
          "id": 0,
          "value": 2.0
        },
        {
          "id": 1,
          "value": 0.0
        },
        {
          "id": 2,
          "value": 0.0
        },
        {
          "id": 3,
          "value": 8.0
        },
        {
          "id": 4,
          "value": 0.0
        },
        {
          "id": 5,
          "value": 2.05500007
        },
        {
          "id": 6,
          "value": 2.03999877
        },
        {
          "id": 7,
          "value": 0.0
        },
        {
          "id": 8,
          "value": 0.0
        },
        {
          "id": 9,
          "value": 0.0
        },
        {
          "id": 10,
          "value": 2.00999856
        },
        {
          "id": 11,
          "value": 0.0
        },
        {
          "id": 12,
          "value": 0.0
        },
        {
          "id": 13,
          "value": 0.0
        },
        {
          "id": 14,
          "value": 0.0
        },
        {
          "id": 15,
          "value": 0.0
        },
        {
          "id": 16,
          "value": 0.0
        },
        {
          "id": 17,
          "value": 0.0
        },
        {
          "id": 18,
          "value": 0.0
        },
        {
          "id": 19,
          "value": 0.0
        },
        {
          "id": 20,
          "value": 0.0
        },
        {
          "id": 21,
          "value": 0.0
        },
        {
          "id": 22,
          "value": 0.0
        },
        {
          "id": 23,
          "value": 0.0
        },
        {
          "id": 24,
          "value": 0.0
        },
        {
          "id": 25,
          "value": 0.0
        },
        {
          "id": 26,
          "value": 0.0
        },
        {
          "id": 27,
          "value": 0.0
        },
        {
          "id": 28,
          "value": 0.0
        },
        {
          "id": 29,
          "value": 0.0
        },
        {
          "id": 30,
          "value": 0.0
        },
        {
          "id": 31,
          "value": 0.0
        },
        {
          "id": 32,
          "value": 0.0
        },
        {
          "id": 33,
          "value": 0.0
        },
        {
          "id": 34,
          "value": 0.0
        },
        {
          "id": 35,
          "value": 0.0
        }
      ],
      "leftModuleId": 10,
      "rightModuleId": 3,
      "data": {
        "running": true,
        "gates": [
          1,
          1,
          1,
          1,
          1,
          1,
          1,
          1
        ]
      },
      "pos": [
        20,
        0
      ]
    },
    {
      "id": 10,
      "plugin": "CountModula",
      "version": "1.16.0",
      "model": "Euclid",
      "params": [
        {
          "id": 0,
          "value": 28.0
        },
        {
          "id": 1,
          "value": 0.437000513
        },
        {
          "id": 2,
          "value": 0.0735000074
        },
        {
          "id": 3,
          "value": 0.0129999937
        },
        {
          "id": 4,
          "value": -0.266999871
        },
        {
          "id": 5,
          "value": 0.0
        },
        {
          "id": 6,
          "value": 0.0
        },
        {
          "id": 7,
          "value": 0.0
        },
        {
          "id": 8,
          "value": 0.0
        }
      ],
      "rightModuleId": 9,
      "data": {
        "moduleVersion": 1,
        "currentStep": 20,
        "shiftPosition": 2,
        "clockState": false,
        "runState": true,
        "theme": 0
      },
      "pos": [
        0,
        0
      ]
    },
    {
      "id": 13,
      "plugin": "Autodafe-DrumKit",
      "version": "1.0.0",
      "model": "DrumsKick",
      "params": [
        {
          "id": 0,
          "value": 0.0
        }
      ],
      "rightModuleId": 47,
      "data": {
        "sampletype": 2
      },
      "pos": [
        25,
        1
      ]
    },
    {
      "id": 47,
      "plugin": "Autodafe-DrumKit",
      "version": "1.0.0",
      "model": "DrumsSnare",
      "params": [
        {
          "id": 0,
          "value": 0.0
        }
      ],
      "leftModuleId": 13,
      "data": {
        "sampletype": 4
      },
      "pos": [
        29,
        1
      ]
    },
    {
      "id": 50,
      "plugin": "Autodafe-DrumKit",
      "version": "1.0.0",
      "model": "DrumsHiHatOpen",
      "params": [
        {
          "id": 0,
          "value": 0.0
        }
      ],
      "leftModuleId": 57,
      "data": {
        "sampletype": 2
      },
      "pos": [
        40,
        1
      ]
    },
    {
      "id": 55,
      "plugin": "Fundamental",
      "version": "1.4.0",
      "model": "VCMixer",
      "params": [
        {
          "id": 0,
          "value": 1.00500023
        },
        {
          "id": 1,
          "value": 1.0
        },
        {
          "id": 2,
          "value": 0.410273671
        },
        {
          "id": 3,
          "value": 0.452699304
        },
        {
          "id": 4,
          "value": 0.726902843
        }
      ],
      "leftModuleId": 2,
      "rightModuleId": 1,
      "pos": [
        79,
        0
      ]
    },
    {
      "id": 57,
      "plugin": "CountModula",
      "version": "1.16.0",
      "model": "BooleanAND",
      "params": [],
      "rightModuleId": 50,
      "data": {
        "moduleVersion": 3,
        "theme": 0
      },
      "pos": [
        36,
        1
      ]
    },
    {
      "id": 59,
      "plugin": "Fundamental",
      "version": "1.4.0",
      "model": "LFO2",
      "params": [
        {
          "id": 0,
          "value": 1.0
        },
        {
          "id": 1,
          "value": 1.0
        },
        {
          "id": 2,
          "value": 3.02499628
        },
        {
          "id": 3,
          "value": 2.99550009
        },
        {
          "id": 4,
          "value": 0.5
        }
      ],
      "rightModuleId": 61,
      "pos": [
        0,
        1
      ]
    },
    {
      "id": 60,
      "plugin": "CountModula",
      "version": "1.16.0",
      "model": "ClockDivider",
      "params": [
        {
          "id": 0,
          "value": 0.0
        },
        {
          "id": 1,
          "value": 0.0
        },
        {
          "id": 2,
          "value": 0.0
        }
      ],
      "leftModuleId": 61,
      "rightModuleId": 65,
      "data": {
        "moduleVersion": 2,
        "count": 103,
        "mode": 0,
        "doTrigs": false,
        "countUp": false,
        "theme": 0
      },
      "pos": [
        9,
        1
      ]
    },
    {
      "id": 61,
      "plugin": "Autodafe",
      "version": "1.0.1",
      "model": "Multiple18",
      "params": [],
      "leftModuleId": 59,
      "rightModuleId": 60,
      "pos": [
        6,
        1
      ]
    },
    {
      "id": 65,
      "plugin": "Autodafe",
      "version": "1.0.1",
      "model": "Multiple18",
      "params": [],
      "leftModuleId": 60,
      "rightModuleId": 66,
      "pos": [
        17,
        1
      ]
    },
    {
      "id": 66,
      "plugin": "Autodafe",
      "version": "1.0.1",
      "model": "Multiple18",
      "params": [],
      "leftModuleId": 65,
      "pos": [
        20,
        1
      ]
    },
    {
      "id": 71,
      "plugin": "Fundamental",
      "version": "1.4.0",
      "model": "VCO",
      "params": [
        {
          "id": 0,
          "value": 1.0
        },
        {
          "id": 1,
          "value": 1.0
        },
        {
          "id": 2,
          "value": -16.84799
        },
        {
          "id": 3,
          "value": -0.00699704001
        },
        {
          "id": 4,
          "value": 0.0
        },
        {
          "id": 5,
          "value": 0.5
        },
        {
          "id": 6,
          "value": 0.0
        }
      ],
      "leftModuleId": 72,
      "rightModuleId": 74,
      "pos": [
        56,
        1
      ]
    },
    {
      "id": 72,
      "plugin": "Fundamental",
      "version": "1.4.0",
      "model": "ADSR",
      "params": [
        {
          "id": 0,
          "value": 0.409500182
        },
        {
          "id": 1,
          "value": 0.665999234
        },
        {
          "id": 2,
          "value": 0.0
        },
        {
          "id": 3,
          "value": 0.409500062
        }
      ],
      "rightModuleId": 71,
      "pos": [
        48,
        1
      ]
    },
    {
      "id": 73,
      "plugin": "Autodafe",
      "version": "1.0.1",
      "model": "ReverbFx",
      "params": [
        {
          "id": 0,
          "value": 4.53548098
        },
        {
          "id": 1,
          "value": 0.48900184
        }
      ],
      "leftModuleId": 75,
      "pos": [
        90,
        1
      ]
    },
    {
      "id": 74,
      "plugin": "Fundamental",
      "version": "1.4.0",
      "model": "VCMixer",
      "params": [
        {
          "id": 0,
          "value": 1.0
        },
        {
          "id": 1,
          "value": 1.0
        },
        {
          "id": 2,
          "value": 1.0
        },
        {
          "id": 3,
          "value": 1.0
        },
        {
          "id": 4,
          "value": 1.0
        }
      ],
      "leftModuleId": 71,
      "rightModuleId": 79,
      "pos": [
        66,
        1
      ]
    },
    {
      "id": 75,
      "plugin": "Fundamental",
      "version": "1.4.0",
      "model": "VCF",
      "params": [
        {
          "id": 0,
          "value": 0.609498858
        },
        {
          "id": 1,
          "value": 0.5
        },
        {
          "id": 2,
          "value": 0.00150000001
        },
        {
          "id": 3,
          "value": 0.422999501
        },
        {
          "id": 4,
          "value": 0.61500001
        }
      ],
      "leftModuleId": 79,
      "rightModuleId": 73,
      "pos": [
        82,
        1
      ]
    },
    {
      "id": 79,
      "plugin": "Fundamental",
      "version": "1.4.0",
      "model": "LFO2",
      "params": [
        {
          "id": 0,
          "value": 1.0
        },
        {
          "id": 1,
          "value": 1.0
        },
        {
          "id": 2,
          "value": -4.21099472
        },
        {
          "id": 3,
          "value": 0.0
        },
        {
          "id": 4,
          "value": 0.5
        }
      ],
      "leftModuleId": 74,
      "rightModuleId": 75,
      "pos": [
        76,
        1
      ]
    }
  ],
  "cables": [
    {
      "id": 11,
      "outputModuleId": 10,
      "outputId": 1,
      "inputModuleId": 6,
      "inputId": 4,
      "color": "#c9b70e"
    },
    {
      "id": 14,
      "outputModuleId": 13,
      "outputId": 0,
      "inputModuleId": 2,
      "inputId": 2,
      "color": "#c9b70e"
    },
    {
      "id": 0,
      "outputModuleId": 9,
      "outputId": 1,
      "inputModuleId": 3,
      "inputId": 1,
      "color": "#c91847"
    },
    {
      "id": 199,
      "outputModuleId": 10,
      "outputId": 0,
      "inputModuleId": 6,
      "inputId": 5,
      "color": "#c91847"
    },
    {
      "id": 202,
      "outputModuleId": 47,
      "outputId": 0,
      "inputModuleId": 2,
      "inputId": 3,
      "color": "#0c8e15"
    },
    {
      "id": 2,
      "outputModuleId": 2,
      "outputId": 0,
      "inputModuleId": 55,
      "inputId": 1,
      "color": "#0986ad"
    },
    {
      "id": 212,
      "outputModuleId": 55,
      "outputId": 0,
      "inputModuleId": 1,
      "inputId": 0,
      "color": "#c91847"
    },
    {
      "id": 213,
      "outputModuleId": 55,
      "outputId": 0,
      "inputModuleId": 1,
      "inputId": 1,
      "color": "#0986ad"
    },
    {
      "id": 214,
      "outputModuleId": 50,
      "outputId": 0,
      "inputModuleId": 55,
      "inputId": 2,
      "color": "#c9b70e"
    },
    {
      "id": 217,
      "outputModuleId": 3,
      "outputId": 2,
      "inputModuleId": 4,
      "inputId": 3,
      "color": "#c9b70e"
    },
    {
      "id": 226,
      "outputModuleId": 59,
      "outputId": 0,
      "inputModuleId": 61,
      "inputId": 0,
      "color": "#c91847"
    },
    {
      "id": 227,
      "outputModuleId": 61,
      "outputId": 0,
      "inputModuleId": 60,
      "inputId": 0,
      "color": "#0986ad"
    },
    {
      "id": 13,
      "outputModuleId": 65,
      "outputId": 0,
      "inputModuleId": 13,
      "inputId": 0,
      "color": "#c91847"
    },
    {
      "id": 230,
      "outputModuleId": 60,
      "outputId": 2,
      "inputModuleId": 66,
      "inputId": 0,
      "color": "#c91847"
    },
    {
      "id": 201,
      "outputModuleId": 66,
      "outputId": 0,
      "inputModuleId": 47,
      "inputId": 0,
      "color": "#c9b70e"
    },
    {
      "id": 232,
      "outputModuleId": 65,
      "outputId": 1,
      "inputModuleId": 57,
      "inputId": 0,
      "color": "#c9b70e"
    },
    {
      "id": 233,
      "outputModuleId": 57,
      "outputId": 1,
      "inputModuleId": 50,
      "inputId": 0,
      "color": "#0c8e15"
    },
    {
      "id": 234,
      "outputModuleId": 61,
      "outputId": 2,
      "inputModuleId": 10,
      "inputId": 1,
      "color": "#c91847"
    },
    {
      "id": 16,
      "outputModuleId": 65,
      "outputId": 2,
      "inputModuleId": 9,
      "inputId": 1,
      "color": "#c91847"
    },
    {
      "id": 15,
      "outputModuleId": 6,
      "outputId": 0,
      "inputModuleId": 2,
      "inputId": 5,
      "color": "#0c8e15"
    },
    {
      "id": 7,
      "outputModuleId": 4,
      "outputId": 0,
      "inputModuleId": 2,
      "inputId": 1,
      "color": "#0986ad"
    },
    {
      "id": 242,
      "outputModuleId": 72,
      "outputId": 0,
      "inputModuleId": 74,
      "inputId": 5,
      "color": "#c91847"
    },
    {
      "id": 245,
      "outputModuleId": 73,
      "outputId": 0,
      "inputModuleId": 55,
      "inputId": 3,
      "color": "#0c8e15"
    },
    {
      "id": 244,
      "outputModuleId": 74,
      "outputId": 0,
      "inputModuleId": 75,
      "inputId": 3,
      "color": "#c9b70e"
    },
    {
      "id": 246,
      "outputModuleId": 75,
      "outputId": 0,
      "inputModuleId": 73,
      "inputId": 0,
      "color": "#c91847"
    },
    {
      "id": 241,
      "outputModuleId": 60,
      "outputId": 4,
      "inputModuleId": 72,
      "inputId": 4,
      "color": "#0c8e15"
    },
    {
      "id": 255,
      "outputModuleId": 79,
      "outputId": 0,
      "inputModuleId": 75,
      "inputId": 0,
      "color": "#c91847"
    },
    {
      "id": 256,
      "outputModuleId": 71,
      "outputId": 0,
      "inputModuleId": 55,
      "inputId": 4,
      "color": "#0986ad"
    },
    {
      "id": 243,
      "outputModuleId": 71,
      "outputId": 2,
      "inputModuleId": 74,
      "inputId": 1,
      "color": "#0986ad"
    },
    {
      "id": 229,
      "outputModuleId": 60,
      "outputId": 1,
      "inputModuleId": 65,
      "inputId": 0,
      "color": "#0c8e15"
    }
  ]
}