{
  "version": "1.1.6",
  "modules": [
    {
      "id": 13,
      "plugin": "Autodafe-DrumKit",
      "version": "1.0.0",
      "model": "DrumsKick",
      "params": [
        {
          "id": 0,
          "value": 0.0
        }
      ],
      "leftModuleId": 66,
      "rightModuleId": 47,
      "data": {
        "sampletype": 4
      },
      "pos": [
        23,
        0
      ]
    },
    {
      "id": 47,
      "plugin": "Autodafe-DrumKit",
      "version": "1.0.0",
      "model": "DrumsSnare",
      "params": [
        {
          "id": 0,
          "value": 0.0
        }
      ],
      "leftModuleId": 13,
      "rightModuleId": 57,
      "data": {
        "sampletype": 4
      },
      "pos": [
        27,
        0
      ]
    },
    {
      "id": 50,
      "plugin": "Autodafe-DrumKit",
      "version": "1.0.0",
      "model": "DrumsHiHatOpen",
      "params": [
        {
          "id": 0,
          "value": 0.0
        }
      ],
      "leftModuleId": 57,
      "data": {
        "sampletype": 4
      },
      "pos": [
        35,
        0
      ]
    },
    {
      "id": 57,
      "plugin": "CountModula",
      "version": "1.16.0",
      "model": "BooleanAND",
      "params": [],
      "leftModuleId": 47,
      "rightModuleId": 50,
      "data": {
        "moduleVersion": 3,
        "theme": 0
      },
      "pos": [
        31,
        0
      ]
    },
    {
      "id": 59,
      "plugin": "Fundamental",
      "version": "1.4.0",
      "model": "LFO2",
      "params": [
        {
          "id": 0,
          "value": 1.0
        },
        {
          "id": 1,
          "value": 1.0
        },
        {
          "id": 2,
          "value": 3.05199623
        },
        {
          "id": 3,
          "value": 2.99550009
        },
        {
          "id": 4,
          "value": 0.5
        }
      ],
      "rightModuleId": 61,
      "pos": [
        0,
        0
      ]
    },
    {
      "id": 60,
      "plugin": "CountModula",
      "version": "1.16.0",
      "model": "ClockDivider",
      "params": [
        {
          "id": 0,
          "value": 0.0
        },
        {
          "id": 1,
          "value": 0.0
        },
        {
          "id": 2,
          "value": 0.0
        }
      ],
      "leftModuleId": 61,
      "rightModuleId": 65,
      "data": {
        "moduleVersion": 2,
        "count": 508,
        "mode": 0,
        "doTrigs": false,
        "countUp": false,
        "theme": 0
      },
      "pos": [
        9,
        0
      ]
    },
    {
      "id": 61,
      "plugin": "Autodafe",
      "version": "1.0.1",
      "model": "Multiple18",
      "params": [],
      "leftModuleId": 59,
      "rightModuleId": 60,
      "pos": [
        6,
        0
      ]
    },
    {
      "id": 65,
      "plugin": "Autodafe",
      "version": "1.0.1",
      "model": "Multiple18",
      "params": [],
      "leftModuleId": 60,
      "rightModuleId": 66,
      "pos": [
        17,
        0
      ]
    },
    {
      "id": 66,
      "plugin": "Autodafe",
      "version": "1.0.1",
      "model": "Multiple18",
      "params": [],
      "leftModuleId": 65,
      "rightModuleId": 13,
      "pos": [
        20,
        0
      ]
    },
    {
      "id": 1,
      "plugin": "Core",
      "version": "1.1.6",
      "model": "AudioInterface",
      "params": [],
      "leftModuleId": 2,
      "data": {
        "audio": {
          "driver": 6,
          "deviceName": "Speakers - Motherboard Output (Realtek High Definition Audio)",
          "offset": 0,
          "maxChannels": 8,
          "sampleRate": 44100,
          "blockSize": 256
        }
      },
      "pos": [
        51,
        0
      ]
    },
    {
      "id": 2,
      "plugin": "Fundamental",
      "version": "1.4.0",
      "model": "VCMixer",
      "params": [
        {
          "id": 0,
          "value": 0.918000638
        },
        {
          "id": 1,
          "value": 0.873983979
        },
        {
          "id": 2,
          "value": 0.397544742
        },
        {
          "id": 3,
          "value": 0.376330793
        },
        {
          "id": 4,
          "value": 0.0
        }
      ],
      "rightModuleId": 1,
      "pos": [
        41,
        0
      ]
    }
  ],
  "cables": [
    {
      "id": 226,
      "outputModuleId": 59,
      "outputId": 0,
      "inputModuleId": 61,
      "inputId": 0,
      "color": "#c91847"
    },
    {
      "id": 227,
      "outputModuleId": 61,
      "outputId": 0,
      "inputModuleId": 60,
      "inputId": 0,
      "color": "#0986ad"
    },
    {
      "id": 13,
      "outputModuleId": 65,
      "outputId": 0,
      "inputModuleId": 13,
      "inputId": 0,
      "color": "#c91847"
    },
    {
      "id": 201,
      "outputModuleId": 66,
      "outputId": 0,
      "inputModuleId": 47,
      "inputId": 0,
      "color": "#c9b70e"
    },
    {
      "id": 232,
      "outputModuleId": 65,
      "outputId": 1,
      "inputModuleId": 57,
      "inputId": 0,
      "color": "#c9b70e"
    },
    {
      "id": 233,
      "outputModuleId": 57,
      "outputId": 1,
      "inputModuleId": 50,
      "inputId": 0,
      "color": "#0c8e15"
    },
    {
      "id": 230,
      "outputModuleId": 60,
      "outputId": 2,
      "inputModuleId": 66,
      "inputId": 0,
      "color": "#c91847"
    },
    {
      "id": 229,
      "outputModuleId": 60,
      "outputId": 1,
      "inputModuleId": 65,
      "inputId": 0,
      "color": "#0c8e15"
    },
    {
      "id": 253,
      "outputModuleId": 2,
      "outputId": 0,
      "inputModuleId": 1,
      "inputId": 1,
      "color": "#c9b70e"
    },
    {
      "id": 252,
      "outputModuleId": 2,
      "outputId": 0,
      "inputModuleId": 1,
      "inputId": 0,
      "color": "#0986ad"
    },
    {
      "id": 14,
      "outputModuleId": 13,
      "outputId": 0,
      "inputModuleId": 2,
      "inputId": 1,
      "color": "#c9b70e"
    },
    {
      "id": 202,
      "outputModuleId": 47,
      "outputId": 0,
      "inputModuleId": 2,
      "inputId": 2,
      "color": "#0c8e15"
    },
    {
      "id": 214,
      "outputModuleId": 50,
      "outputId": 0,
      "inputModuleId": 2,
      "inputId": 3,
      "color": "#c9b70e"
    }
  ]
}